<?xml version="1.0" encoding="UTF-8" standalone="no"?>
<svg
   xmlns:dc="http://purl.org/dc/elements/1.1/"
   xmlns:cc="http://creativecommons.org/ns#"
   xmlns:rdf="http://www.w3.org/1999/02/22-rdf-syntax-ns#"
   xmlns:svg="http://www.w3.org/2000/svg"
   xmlns="http://www.w3.org/2000/svg"
   xmlns:sodipodi="http://sodipodi.sourceforge.net/DTD/sodipodi-0.dtd"
   xmlns:inkscape="http://www.inkscape.org/namespaces/inkscape"
   width="32"
   height="27.636362"
   viewBox="0 0 8.4666667 7.3121207"
   version="1.1"
   id="svg8"
   sodipodi:docname="hiker.svg"
   inkscape:version="1.0.2 (e86c870879, 2021-01-15)">
  <sodipodi:namedview
     pagecolor="#ffffff"
     bordercolor="#666666"
     borderopacity="1"
     objecttolerance="10"
     gridtolerance="10"
     guidetolerance="10"
     inkscape:pageopacity="0"
     inkscape:pageshadow="2"
     inkscape:window-width="1920"
     inkscape:window-height="1043"
     id="namedview13"
     showgrid="false"
     inkscape:zoom="16"
     inkscape:cx="20.606196"
     inkscape:cy="16.748957"
     inkscape:window-x="0"
     inkscape:window-y="0"
     inkscape:window-maximized="1"
     inkscape:current-layer="svg8" />
  <defs
     id="defs2" />
  <metadata
     id="metadata5">
    <rdf:RDF>
      <cc:Work
         rdf:about="">
        <dc:format>image/svg+xml</dc:format>
        <dc:type
           rdf:resource="http://purl.org/dc/dcmitype/StillImage" />
        <dc:title></dc:title>
      </cc:Work>
    </rdf:RDF>
  </metadata>
  <g
     id="layer1"
     transform="translate(-55.675891,-69.982291)">
    <g
       id="g847"
       transform="matrix(0.1322314,0,0,0.1322314,48.31379,68.040556)"
       style="stroke-width:7.5625">
      <path
         style="fill:#000000;stroke-width:7.5625"
         d="m 72.549731,66.130275 c -1.941426,-1.053573 -1.746759,-1.736984 2.000314,-7.022433 3.263736,-4.603676 3.263736,-4.603676 4.605295,-9.763051 0.737858,-2.837656 2.168658,-8.255 3.179556,-12.038541 1.010896,-3.783542 1.910699,-7.176823 1.999562,-7.540625 0.27277,-1.116729 1.628667,-2.38125 2.553317,-2.38125 0.763484,0 10.063117,8.370626 10.063117,9.057839 0,0.111418 1.421998,0.202577 3.159998,0.202577 3.41715,0 3.98375,0.247143 3.98375,1.737656 0,1.25748 -0.64734,1.437344 -5.173089,1.437344 -4.20538,0 -4.20538,0 -5.858909,-1.638832 -2.015977,-1.998057 -1.741308,-2.315834 -3.105928,3.593394 -0.62424,2.703145 -1.26691,5.073774 -1.42816,5.268066 -0.225399,0.271592 0.158128,1.083196 1.658958,3.510629 1.952139,3.157368 1.952139,3.157368 2.93447,8.777491 1.11052,6.353511 1.06748,6.746748 -0.776292,7.092643 -2.161493,0.405498 -2.283751,0.186465 -3.339688,-5.983221 C 88.171229,55.5625 88.171229,55.5625 86.16243,52.189062 c -1.104836,-1.855391 -2.080675,-3.373437 -2.168525,-3.373437 -0.08785,0 -0.548055,1.581374 -1.022681,3.514166 -1.026693,4.180962 -0.722915,3.584528 -4.669898,9.168813 -3.60732,5.103722 -4.120392,5.516893 -5.751595,4.631671 z m 25.36775,0.02582 c -0.0816,-0.212643 0.444783,-5.362096 1.169734,-11.443229 0.724953,-6.081136 1.391255,-11.741219 1.480665,-12.577964 0.15966,-1.494172 0.17739,-1.521354 0.99245,-1.521354 0.82988,0 0.82988,0 -0.68611,12.766146 -0.8338,7.02138 -1.521864,12.855442 -1.529036,12.964583 -0.02416,0.367535 -1.277867,0.202284 -1.427703,-0.188182 z M 75.433803,39.34099 c -3.203226,-0.929635 -3.340391,-1.565781 -1.758137,-8.153916 1.391083,-5.792138 1.730756,-6.128567 5.303635,-5.252988 3.300556,0.808844 3.452694,1.535338 1.740033,8.309135 -1.391551,5.503767 -1.968668,6.060383 -5.285531,5.097769 z m 26.727777,-3.442809 c -1.00484,-0.115246 -0.99078,-1.973252 0.016,-2.116217 0.68385,-0.09711 0.93482,0.351062 0.81121,1.448578 -0.0736,0.653101 -0.18311,0.741515 -0.82723,0.667639 z m -13.341159,-9.81257 c -3.511037,-1.639571 -2.651617,-7.169967 1.215742,-7.823353 0.887116,-0.149877 1.35563,-0.06344 2.344311,0.432507 4.961356,2.488736 1.468898,9.739249 -3.560053,7.390846 z"
         id="path849" />
    </g>
  </g>
</svg>
