<?xml version="1.0" encoding="UTF-8" standalone="no"?>
<svg
   xmlns:dc="http://purl.org/dc/elements/1.1/"
   xmlns:cc="http://creativecommons.org/ns#"
   xmlns:rdf="http://www.w3.org/1999/02/22-rdf-syntax-ns#"
   xmlns:svg="http://www.w3.org/2000/svg"
   xmlns="http://www.w3.org/2000/svg"
   width="18.520834mm"
   height="15.875mm"
   viewBox="0 0 18.520834 15.875"
   version="1.1"
   id="svg8">
  <defs
     id="defs2">
    <mask
       maskUnits="userSpaceOnUse"
       id="mask979">
      <g
         id="g987"
         style="stroke-width:0.999999">
        <rect
           style="fill:#ffffff;fill-opacity:1;stroke:none;stroke-width:0.0529168;stroke-linecap:round;stroke-linejoin:round;stroke-opacity:0.5;paint-order:markers stroke fill"
           id="rect981"
           width="18.520834"
           height="15.875"
           x="0"
           y="0"
           ry="0"
           rx="0" />
        <path
           style="fill:#000000;fill-opacity:1;stroke:none;stroke-width:0.0529168;stroke-linecap:round;stroke-linejoin:round;stroke-opacity:0.5;paint-order:markers stroke fill"
           id="path983"
           d="M 3.9687499,3.96875 A 1.3229166,1.3229166 0 0 1 5.2900734,2.6458343 1.3229166,1.3229166 0 0 1 6.6145793,3.9655637 1.3229166,1.3229166 0 0 1 5.296446,5.291658 1.3229166,1.3229166 0 0 1 3.9687652,3.9751227" />
        <path
           style="fill:#000000;fill-opacity:1;stroke:none;stroke-width:0.264583px;stroke-linecap:butt;stroke-linejoin:miter;stroke-opacity:1"
           d="m 0,9.2604166 h 5.2916666 l 2.6458333,-2.6458334 2.6458331,2.6458334 2.645834,-2.6458334 1.322916,1.3229167 h 3.96875 v 2.6458331 h -3.96875 L 13.229167,9.2604166 10.583333,11.90625 7.9374999,9.2604166 5.2916666,11.90625 H 0 Z"
           id="path985" />
      </g>
    </mask>
  </defs>
  <metadata
     id="metadata5">
    <rdf:RDF>
      <cc:Work
         rdf:about="">
        <dc:format>image/svg+xml</dc:format>
        <dc:type
           rdf:resource="http://purl.org/dc/dcmitype/StillImage" />
        <dc:title></dc:title>
      </cc:Work>
    </rdf:RDF>
  </metadata>
  <g
     id="layer1">
    <rect
       style="fill:#228b22;fill-opacity:1;stroke:none;stroke-width:0.0529167;stroke-linecap:round;stroke-linejoin:round;stroke-opacity:0.5;paint-order:markers stroke fill"
       id="rect849"
       width="18.520834"
       height="15.875"
       x="-6.357829e-07"
       y="-3.7599551e-15"
       ry="3.9687603"
       rx="3.9687603"
       mask="url(#mask979)" />
  </g>
</svg>
